<svg width="15" height="15" viewBox="0 0 15 15" fill="none" xmlns="http://www.w3.org/2000/svg">
<path d="M13.6788 3.46C13.6257 3.35903 13.5461 3.27446 13.4485 3.21542C13.3509 3.15638 13.2391 3.12512 13.125 3.125H1.87501C1.76116 3.12547 1.64959 3.15697 1.55231 3.2161C1.45502 3.27524 1.3757 3.35977 1.32286 3.46062C1.27003 3.56147 1.24568 3.67481 1.25245 3.78846C1.25921 3.9021 1.29683 4.01176 1.36126 4.10562L6.98626 12.2306C7.04359 12.3139 7.12032 12.382 7.20981 12.429C7.29931 12.4761 7.3989 12.5006 7.50001 12.5006C7.60111 12.5006 7.7007 12.4761 7.7902 12.429C7.8797 12.382 7.95642 12.3139 8.01376 12.2306L13.6388 4.10562C13.7038 4.01195 13.7419 3.90223 13.749 3.7884C13.756 3.67457 13.7317 3.56099 13.6788 3.46ZM7.50001 10.7769L3.06751 4.375H11.9325L7.50001 10.7769Z" fill="#B0B0B0"/>
</svg>
