<svg width="13" height="10" viewBox="0 0 13 10" fill="none" xmlns="http://www.w3.org/2000/svg">
<path d="M0.874992 9.875H12.125C12.2389 9.87464 12.3505 9.84323 12.4479 9.78414C12.5453 9.72505 12.6247 9.64052 12.6776 9.53966C12.7305 9.43879 12.7549 9.3254 12.7482 9.2117C12.7414 9.098 12.7038 8.98829 12.6394 8.89438L7.01437 0.769376C6.78124 0.432501 6.21999 0.432501 5.98624 0.769376L0.361242 8.89438C0.296133 8.98809 0.257951 9.09786 0.250846 9.21175C0.24374 9.32564 0.267982 9.4393 0.320939 9.54038C0.373895 9.64146 0.45354 9.7261 0.55122 9.78509C0.6489 9.84408 0.76088 9.87518 0.874992 9.875ZM6.49999 2.22313L10.9325 8.625H2.06749L6.49999 2.22313Z" fill="#B0B0B0"/>
</svg>
